%TF.GenerationSoftware,KiCad,Pcbnew,(6.0.1)*%
%TF.CreationDate,2022-06-22T22:46:58-04:00*%
%TF.ProjectId,stemcell,7374656d-6365-46c6-9c2e-6b696361645f,1.0.0*%
%TF.SameCoordinates,Original*%
%TF.FileFunction,Soldermask,Bot*%
%TF.FilePolarity,Negative*%
%FSLAX46Y46*%
G04 Gerber Fmt 4.6, Leading zero omitted, Abs format (unit mm)*
G04 Created by KiCad (PCBNEW (6.0.1)) date 2022-06-22 22:46:58*
%MOMM*%
%LPD*%
G01*
G04 APERTURE LIST*
%ADD10O,1.000000X1.800000*%
%ADD11O,1.000000X2.200000*%
%ADD12C,1.700000*%
%ADD13R,1.200000X0.600000*%
%ADD14R,0.600000X1.200000*%
%ADD15R,0.600000X1.000000*%
G04 APERTURE END LIST*
D10*
%TO.C,J1*%
X105689400Y-54472000D03*
X94539400Y-54472000D03*
D11*
X105689400Y-50472000D03*
X94539400Y-50472000D03*
%TD*%
D12*
%TO.C,J4*%
X105181400Y-79705200D03*
X102641400Y-79705200D03*
X100101400Y-79705200D03*
X97561400Y-79705200D03*
X95021400Y-79705200D03*
%TD*%
%TO.C,J2*%
X92481400Y-79705200D03*
X92481400Y-77165200D03*
X92481400Y-74625200D03*
X92481400Y-72085200D03*
X92481400Y-69545200D03*
X92481400Y-67005200D03*
X92481400Y-64465200D03*
X92481400Y-61925200D03*
X92481400Y-59385200D03*
X92481400Y-56845200D03*
X92481400Y-54305200D03*
X92481400Y-51765200D03*
%TD*%
%TO.C,J3*%
X107721400Y-51765200D03*
X107721400Y-54305200D03*
X107721400Y-56845200D03*
X107721400Y-59385200D03*
X107721400Y-61925200D03*
X107721400Y-64465200D03*
X107721400Y-67005200D03*
X107721400Y-69545200D03*
X107721400Y-72085200D03*
X107721400Y-74625200D03*
X107721400Y-77165200D03*
X107721400Y-79705200D03*
%TD*%
D13*
%TO.C,JP5*%
X102946200Y-66764000D03*
X102946200Y-67564000D03*
X102946200Y-68364000D03*
%TD*%
D14*
%TO.C,JP3*%
X101561800Y-68174800D03*
X100761800Y-68174800D03*
X99961800Y-68174800D03*
%TD*%
D15*
%TO.C,JP1*%
X101561800Y-62974800D03*
X100761800Y-62974800D03*
X99961800Y-62974800D03*
%TD*%
%TO.C,JP2*%
X99961800Y-65074800D03*
X100761800Y-65074800D03*
X101561800Y-65074800D03*
%TD*%
D14*
%TO.C,JP4*%
X99961800Y-70374800D03*
X100761800Y-70374800D03*
X101561800Y-70374800D03*
%TD*%
M02*
