%TF.GenerationSoftware,KiCad,Pcbnew,(6.0.1)*%
%TF.CreationDate,2022-06-23T12:55:07-04:00*%
%TF.ProjectId,stemcell,7374656d-6365-46c6-9c2e-6b696361645f,1.0.0*%
%TF.SameCoordinates,Original*%
%TF.FileFunction,Paste,Top*%
%TF.FilePolarity,Positive*%
%FSLAX46Y46*%
G04 Gerber Fmt 4.6, Leading zero omitted, Abs format (unit mm)*
G04 Created by KiCad (PCBNEW (6.0.1)) date 2022-06-23 12:55:07*
%MOMM*%
%LPD*%
G01*
G04 APERTURE LIST*
G04 Aperture macros list*
%AMRoundRect*
0 Rectangle with rounded corners*
0 $1 Rounding radius*
0 $2 $3 $4 $5 $6 $7 $8 $9 X,Y pos of 4 corners*
0 Add a 4 corners polygon primitive as box body*
4,1,4,$2,$3,$4,$5,$6,$7,$8,$9,$2,$3,0*
0 Add four circle primitives for the rounded corners*
1,1,$1+$1,$2,$3*
1,1,$1+$1,$4,$5*
1,1,$1+$1,$6,$7*
1,1,$1+$1,$8,$9*
0 Add four rect primitives between the rounded corners*
20,1,$1+$1,$2,$3,$4,$5,0*
20,1,$1+$1,$4,$5,$6,$7,0*
20,1,$1+$1,$6,$7,$8,$9,0*
20,1,$1+$1,$8,$9,$2,$3,0*%
G04 Aperture macros list end*
%ADD10R,0.600000X0.800000*%
%ADD11R,0.300000X0.800000*%
%ADD12RoundRect,0.140000X-0.170000X0.140000X-0.170000X-0.140000X0.170000X-0.140000X0.170000X0.140000X0*%
%ADD13RoundRect,0.150000X0.512500X0.150000X-0.512500X0.150000X-0.512500X-0.150000X0.512500X-0.150000X0*%
%ADD14RoundRect,0.135000X-0.185000X0.135000X-0.185000X-0.135000X0.185000X-0.135000X0.185000X0.135000X0*%
%ADD15RoundRect,0.140000X0.170000X-0.140000X0.170000X0.140000X-0.170000X0.140000X-0.170000X-0.140000X0*%
%ADD16RoundRect,0.135000X-0.135000X-0.185000X0.135000X-0.185000X0.135000X0.185000X-0.135000X0.185000X0*%
%ADD17RoundRect,0.135000X0.135000X0.185000X-0.135000X0.185000X-0.135000X-0.185000X0.135000X-0.185000X0*%
%ADD18RoundRect,0.135000X0.185000X-0.135000X0.185000X0.135000X-0.185000X0.135000X-0.185000X-0.135000X0*%
%ADD19RoundRect,0.140000X0.140000X0.170000X-0.140000X0.170000X-0.140000X-0.170000X0.140000X-0.170000X0*%
%ADD20R,1.400000X1.200000*%
%ADD21RoundRect,0.140000X-0.140000X-0.170000X0.140000X-0.170000X0.140000X0.170000X-0.140000X0.170000X0*%
%ADD22RoundRect,0.218750X-0.218750X-0.256250X0.218750X-0.256250X0.218750X0.256250X-0.218750X0.256250X0*%
%ADD23R,1.500000X0.550000*%
%ADD24RoundRect,0.011200X-0.768800X-0.128800X0.768800X-0.128800X0.768800X0.128800X-0.768800X0.128800X0*%
%ADD25RoundRect,0.011200X0.128800X-0.768800X0.128800X0.768800X-0.128800X0.768800X-0.128800X-0.768800X0*%
%ADD26RoundRect,0.011200X0.768800X0.128800X-0.768800X0.128800X-0.768800X-0.128800X0.768800X-0.128800X0*%
%ADD27RoundRect,0.011200X-0.128800X0.768800X-0.128800X-0.768800X0.128800X-0.768800X0.128800X0.768800X0*%
G04 APERTURE END LIST*
D10*
%TO.C,J1*%
X96914400Y-55372000D03*
X103314400Y-55372000D03*
X97714400Y-55372000D03*
X102514400Y-55372000D03*
D11*
X101364400Y-55372000D03*
X100364400Y-55372000D03*
X99864400Y-55372000D03*
X98864400Y-55372000D03*
X98364400Y-55372000D03*
X99364400Y-55372000D03*
X100864400Y-55372000D03*
X101864400Y-55372000D03*
%TD*%
D12*
%TO.C,C10*%
X101888600Y-74639200D03*
X101888600Y-75599200D03*
%TD*%
D13*
%TO.C,U2*%
X103026100Y-59249200D03*
X103026100Y-58299200D03*
X103026100Y-57349200D03*
X100751100Y-57349200D03*
X100751100Y-59249200D03*
%TD*%
D14*
%TO.C,R5*%
X97256600Y-58216800D03*
X97256600Y-59236800D03*
%TD*%
D15*
%TO.C,C5*%
X101888600Y-77579200D03*
X101888600Y-76619200D03*
%TD*%
D16*
%TO.C,R6*%
X94048687Y-57669462D03*
X95068687Y-57669462D03*
%TD*%
D15*
%TO.C,C8*%
X100388600Y-75599200D03*
X100388600Y-74639200D03*
%TD*%
D17*
%TO.C,R3*%
X96067925Y-58725928D03*
X95047925Y-58725928D03*
%TD*%
D18*
%TO.C,R4*%
X97018050Y-57276564D03*
X97018050Y-56256564D03*
%TD*%
D12*
%TO.C,C4*%
X103295600Y-74639200D03*
X103295600Y-75599200D03*
%TD*%
D15*
%TO.C,C6*%
X93955216Y-59746949D03*
X93955216Y-58786949D03*
%TD*%
D19*
%TO.C,C1*%
X99311400Y-58216800D03*
X98351400Y-58216800D03*
%TD*%
D20*
%TO.C,Y1*%
X96988600Y-75499200D03*
X94788600Y-75499200D03*
X94788600Y-77199200D03*
X96988600Y-77199200D03*
%TD*%
D12*
%TO.C,C11*%
X98831400Y-76639200D03*
X98831400Y-77599200D03*
%TD*%
D18*
%TO.C,R1*%
X98882200Y-75641200D03*
X98882200Y-74621200D03*
%TD*%
D15*
%TO.C,C12*%
X105570883Y-56936030D03*
X105570883Y-55976030D03*
%TD*%
D17*
%TO.C,R7*%
X105590806Y-57856358D03*
X104570806Y-57856358D03*
%TD*%
D21*
%TO.C,C9*%
X95091646Y-59734374D03*
X96051646Y-59734374D03*
%TD*%
D15*
%TO.C,C2*%
X104494953Y-59775963D03*
X104494953Y-58815963D03*
%TD*%
D18*
%TO.C,R2*%
X104508160Y-56615929D03*
X104508160Y-55595929D03*
%TD*%
D22*
%TO.C,D1*%
X94181296Y-56347195D03*
X95756296Y-56347195D03*
%TD*%
D23*
%TO.C,SW1*%
X105288600Y-77924200D03*
X105288600Y-74674200D03*
%TD*%
D12*
%TO.C,C7*%
X103326600Y-76639200D03*
X103326600Y-77599200D03*
%TD*%
%TO.C,C3*%
X105550843Y-58815877D03*
X105550843Y-59775877D03*
%TD*%
D24*
%TO.C,U1*%
X94407900Y-63245400D03*
X94407900Y-63745400D03*
X94407900Y-64245400D03*
X94407900Y-64745400D03*
X94407900Y-65245400D03*
X94407900Y-65745400D03*
X94407900Y-66245400D03*
X94407900Y-66745400D03*
X94407900Y-67245400D03*
X94407900Y-67745400D03*
X94407900Y-68245400D03*
X94407900Y-68745400D03*
X94407900Y-69245400D03*
X94407900Y-69745400D03*
X94407900Y-70245400D03*
X94407900Y-70745400D03*
D25*
X96337900Y-72675400D03*
X96837900Y-72675400D03*
X97337900Y-72675400D03*
X97837900Y-72675400D03*
X98337900Y-72675400D03*
X98837900Y-72675400D03*
X99337900Y-72675400D03*
X99837900Y-72675400D03*
X100337900Y-72675400D03*
X100837900Y-72675400D03*
X101337900Y-72675400D03*
X101837900Y-72675400D03*
X102337900Y-72675400D03*
X102837900Y-72675400D03*
X103337900Y-72675400D03*
X103837900Y-72675400D03*
D26*
X105767900Y-70745400D03*
X105767900Y-70245400D03*
X105767900Y-69745400D03*
X105767900Y-69245400D03*
X105767900Y-68745400D03*
X105767900Y-68245400D03*
X105767900Y-67745400D03*
X105767900Y-67245400D03*
X105767900Y-66745400D03*
X105767900Y-66245400D03*
X105767900Y-65745400D03*
X105767900Y-65245400D03*
X105767900Y-64745400D03*
X105767900Y-64245400D03*
X105767900Y-63745400D03*
X105767900Y-63245400D03*
D27*
X103837900Y-61315400D03*
X103337900Y-61315400D03*
X102837900Y-61315400D03*
X102337900Y-61315400D03*
X101837900Y-61315400D03*
X101337900Y-61315400D03*
X100837900Y-61315400D03*
X100337900Y-61315400D03*
X99837900Y-61315400D03*
X99337900Y-61315400D03*
X98837900Y-61315400D03*
X98337900Y-61315400D03*
X97837900Y-61315400D03*
X97337900Y-61315400D03*
X96837900Y-61315400D03*
X96337900Y-61315400D03*
%TD*%
D18*
%TO.C,R8*%
X100388600Y-77609200D03*
X100388600Y-76589200D03*
%TD*%
M02*
