M48
; DRILL file {KiCad (6.0.1)} date Wed Jun 22 22:46:58 2022
; FORMAT={-:-/ absolute / inch / decimal}
; #@! TF.CreationDate,2022-06-22T22:46:58-04:00
; #@! TF.GenerationSoftware,Kicad,Pcbnew,(6.0.1)
; #@! TF.FileFunction,Plated,1,4,PTH
FMAT,2
INCH
; #@! TA.AperFunction,Plated,PTH,ViaDrill
T1C0.0118
; #@! TA.AperFunction,Plated,PTH,ComponentDrill
T2C0.0236
; #@! TA.AperFunction,Plated,PTH,ComponentDrill
T3C0.0394
%
G90
G05
T1
X3.659Y-2.988
X3.67Y-2.2817
X3.721Y-2.968
X3.7331Y-2.9038
X3.7536Y-2.8838
X3.7645Y-2.5293
X3.7646Y-2.7308
X3.7789Y-2.255
X3.7851Y-2.6108
X3.7851Y-2.812
X3.787Y-2.68
X3.7915Y-2.919
X3.7942Y-2.4857
X3.8044Y-2.5543
X3.8058Y-2.5248
X3.8082Y-2.2657
X3.8231Y-2.7456
X3.8247Y-2.7991
X3.8369Y-2.334
X3.8494Y-2.6586
X3.8576Y-2.505
X3.8634Y-2.4615
X3.8716Y-2.909
X3.8739Y-2.2084
X3.8792Y-2.2996
X3.8821Y-2.5803
X3.8849Y-2.3665
X3.889Y-2.756
X3.8903Y-2.7903
X3.893Y-3.094
X3.8933Y-2.6157
X3.8952Y-2.6827
X3.9077Y-2.5334
X3.9109Y-2.8109
X3.9133Y-2.5951
X3.9182Y-2.2602
X3.927Y-2.356
X3.9317Y-2.2053
X3.9494Y-2.8132
X3.9651Y-2.366
X3.9687Y-2.6002
X3.971Y-2.2053
X3.9874Y-2.6253
X3.9998Y-2.2239
X4.0112Y-2.6086
X4.0213Y-2.9089
X4.0408Y-2.7516
X4.0637Y-2.8104
X4.0658Y-2.767
X4.0715Y-2.546
X4.0831Y-2.4973
X4.0961Y-2.206
X4.0985Y-3.1112
X4.1003Y-2.2567
X4.1033Y-2.6433
X4.1068Y-2.6143
X4.1117Y-2.3279
X4.1148Y-2.5869
X4.1162Y-2.5372
X4.1718Y-2.2606
T3
X3.641Y-2.038
X3.641Y-2.138
X3.641Y-2.238
X3.641Y-2.338
X3.641Y-2.438
X3.641Y-2.538
X3.641Y-2.638
X3.641Y-2.738
X3.641Y-2.838
X3.641Y-2.938
X3.641Y-3.038
X3.641Y-3.138
X3.741Y-3.138
X3.841Y-3.138
X3.941Y-3.138
X4.041Y-3.138
X4.141Y-3.138
X4.241Y-2.038
X4.241Y-2.138
X4.241Y-2.238
X4.241Y-2.338
X4.241Y-2.438
X4.241Y-2.538
X4.241Y-2.638
X4.241Y-2.738
X4.241Y-2.838
X4.241Y-2.938
X4.241Y-3.038
X4.241Y-3.138
T2
G00X3.722Y-1.9635
M15
G01X3.722Y-2.0107
M16
G05
G00X3.722Y-2.1288
M15
G01X3.722Y-2.1603
M16
G05
G00X4.161Y-1.9635
M15
G01X4.161Y-2.0107
M16
G05
G00X4.161Y-2.1288
M15
G01X4.161Y-2.1603
M16
G05
T0
M30
